<svg width="545px" height="198px" viewBox="0 0 545 198" version="1.1" xmlns="http://www.w3.org/2000/svg" xmlns:xlink="http://www.w3.org/1999/xlink">
    
    <title>fab-logo</title>
    <desc>Created with Sketch.</desc>
    <g id="Page-1" stroke="none" stroke-width="1" fill="none" fill-rule="evenodd">
        <g id="fab-logo" fill-rule="nonzero">
            <path d="M7.805,197.68 C5.906,197.68 4.292,197.022 2.963,195.706 C1.634,194.39 0.969,192.792 0.969,190.912 L0.969,7.32908 C0.969,5.26107 1.539,3.56905 2.678,2.25306 C4.007,0.937048 5.716,0.279046 7.805,0.279046 L131.707,0.279046 C133.796,0.279046 135.505,0.937048 136.834,2.25306 C138.163,3.56905 138.828,5.26107 138.828,7.32908 L138.828,27.6331 C138.828,29.5131 138.163,31.1111 136.834,32.4271 C135.505,33.7431 133.796,34.4011 131.707,34.4011 L48.607,34.4011 C44.163,34.4011 40.561,38.0035 40.561,42.4473 L40.561,79.3711 C40.561,83.8149 44.163,87.4173 48.607,87.4173 L126.01,87.4173 C128.099,87.4173 129.808,88.0753 131.137,89.3913 C132.466,90.7073 133.131,92.3053 133.131,94.1853 L133.131,114.489 C133.131,116.369 132.466,117.967 131.137,119.283 C129.808,120.599 128.099,121.257 126.01,121.257 L48.607,121.257 C44.163,121.257 40.561,124.86 40.561,129.304 L40.561,190.912 C40.561,192.792 39.896,194.39 38.567,195.706 C37.238,197.022 35.529,197.68 33.44,197.68 L7.805,197.68 Z" id="Path" fill="#1DAA2E"></path>
            <path d="M291.186,197.68 C286.985,197.68 283.231,195.053 281.792,191.106 L269.812,158.265 C269.798,158.226 269.76,158.199 269.718,158.199 L269.718,158.199 C269.677,158.199 269.64,158.174 269.625,158.136 L240.318,83.2622 C237.003,74.7924 225.019,74.7877 221.697,83.255 L179.296,191.332 C177.794,195.161 174.1,197.68 169.987,197.68 L146.144,197.68 C139.054,197.68 134.216,190.507 136.872,183.933 L208.55,6.53281 C210.077,2.75332 213.746,0.279046 217.822,0.279046 L244.211,0.279046 C248.288,0.279046 251.956,2.75332 253.483,6.53282 L325.161,183.933 C327.817,190.507 322.979,197.68 315.89,197.68 L291.186,197.68 Z" id="Path" fill="#4A473F"></path>
            <path d="M226.423,108.973 C228.158,104.94 233.875,104.94 235.61,108.973 L244.23,129.016 C245.65,132.316 243.23,135.992 239.637,135.992 L222.396,135.992 C218.804,135.992 216.384,132.316 217.803,129.016 L226.423,108.973 Z" id="Path" fill="#1DAA2E"></path>
            <path d="M349.469,197.68 C347.579,197.68 345.972,197.022 344.65,195.706 C343.327,194.39 342.665,192.792 342.665,190.912 L342.665,7.32908 C342.665,5.26107 343.232,3.56905 344.366,2.25306 C345.689,0.937048 347.39,0.279046 349.469,0.279046 L431.677,0.279046 C453.789,0.279046 470.325,5.16706 481.286,14.9431 C492.247,24.5311 497.728,37.6912 497.728,54.4232 C497.728,64.1992 495.271,72.5652 490.358,79.5212 C487.683,83.3523 484.736,86.581 481.517,89.2073 C478.674,91.5267 478.733,96.7188 481.689,98.8921 C486.218,102.222 490.242,106.481 493.759,111.669 C499.24,119.753 501.98,128.965 501.98,139.305 C501.98,156.789 496.027,170.889 484.121,181.606 C472.215,192.322 455.584,197.68 434.229,197.68 L349.469,197.68 Z M426.575,81.2133 C436.213,81.2133 443.584,78.8633 448.686,74.1632 C453.978,69.4632 456.624,63.1652 456.624,55.2692 C456.624,47.3732 454.072,41.2631 448.97,36.9391 C443.867,32.6151 436.402,30.4531 426.575,30.4531 L386.927,30.4531 C384.557,30.4531 382.636,32.3744 382.636,34.7444 L382.636,76.9219 C382.636,79.292 384.557,81.2133 386.927,81.2133 L426.575,81.2133 Z M429.41,167.505 C439.237,167.505 446.891,164.873 452.371,159.609 C457.852,154.157 460.592,147.295 460.592,139.023 C460.592,130.751 457.758,123.983 452.088,118.719 C446.607,113.267 439.048,110.541 429.41,110.541 L386.927,110.541 C384.557,110.541 382.636,112.463 382.636,114.833 L382.636,163.214 C382.636,165.584 384.557,167.505 386.927,167.505 L429.41,167.505 Z" id="Shape" fill="#1DAA2E"></path>
            <path d="M544.466,29.8579 C544.466,30.3085 544.331,30.6464 544.06,30.8717 C543.79,31.097 543.43,31.2096 542.979,31.2096 C542.641,31.2096 542.326,31.1646 542.033,31.0745 L519.492,24.2818 C519.064,24.1241 518.715,23.8876 518.444,23.5722 C518.197,23.2793 518.073,22.9301 518.073,22.5246 C518.073,22.119 518.197,21.7586 518.444,21.4431 C518.715,21.1277 519.053,20.9024 519.458,20.7673 L538.924,15.7319 L519.492,10.629 C519.064,10.4713 518.715,10.2348 518.444,9.91935 C518.197,9.62647 518.073,9.27726 518.073,8.87173 C518.073,8.4662 518.197,8.10573 518.444,7.79032 C518.692,7.47491 519.03,7.24961 519.458,7.11444 L542.033,0.321822 C542.326,0.231704 542.63,0.186646 542.945,0.186646 C543.418,0.186646 543.79,0.310557 544.06,0.558381 C544.331,0.828734 544.466,1.1892 544.466,1.63979 C544.466,2.04532 544.353,2.39453 544.128,2.68741 C543.903,3.00282 543.576,3.22812 543.148,3.36329 L523.885,8.90553 L542.945,14.0084 C543.283,14.0986 543.565,14.3013 543.79,14.6167 C544.015,14.9321 544.128,15.2926 544.128,15.6981 C544.128,16.0811 544.027,16.4303 543.824,16.7458 C543.621,17.0612 543.339,17.2639 542.979,17.3541 L523.75,22.5246 L543.317,28.1344 C543.722,28.247 544.015,28.4385 544.196,28.7089 C544.376,29.0018 544.466,29.3848 544.466,29.8579 Z" id="Path" fill="#4A473F"></path>
            <path d="M527.603,47.5026 C527.175,47.5026 526.814,47.3562 526.521,47.0633 C526.251,46.7704 526.116,46.3987 526.116,45.9481 L526.116,33.1063 C524.539,33.3542 523.266,34.0638 522.297,35.2354 C521.328,36.4294 520.844,37.8826 520.844,39.5948 C520.844,40.2707 520.968,40.9691 521.216,41.69 C521.463,42.4335 521.767,43.0418 522.128,43.5149 C522.376,43.8303 522.5,44.2021 522.5,44.6301 C522.5,45.0582 522.387,45.3961 522.162,45.6439 C521.824,46.0495 521.441,46.2522 521.013,46.2522 C520.607,46.2522 520.269,46.072 519.999,45.7115 C519.391,44.9455 518.895,43.988 518.512,42.839 C518.129,41.7126 517.937,40.6312 517.937,39.5948 C517.937,37.7474 518.332,36.0915 519.12,34.6271 C519.931,33.1627 521.047,32.0137 522.466,31.1801 C523.885,30.369 525.496,29.9635 527.298,29.9635 C529.101,29.9635 530.712,30.3465 532.131,31.1125 C533.573,31.901 534.688,32.9824 535.477,34.3567 C536.288,35.7535 536.693,37.3306 536.693,39.0879 C536.693,40.8227 536.31,42.3209 535.544,43.5825 C534.778,44.8442 533.708,45.8129 532.334,46.4888 C530.959,47.1647 529.382,47.5026 527.603,47.5026 Z M533.787,39.0879 C533.787,37.4432 533.336,36.1027 532.435,35.0664 C531.534,34.0526 530.329,33.4105 528.819,33.1401 L528.819,44.3936 C530.329,44.1908 531.534,43.6276 532.435,42.7039 C533.336,41.7802 533.787,40.5748 533.787,39.0879 Z" id="Shape" fill="#4A473F"></path>
            <path d="M544.466,53.6225 C544.466,53.1044 544.308,52.6876 543.993,52.3721 C543.677,52.0567 543.261,51.899 542.742,51.899 L527.332,51.899 C525.575,51.899 523.975,52.3046 522.533,53.1156 C521.114,53.9492 519.988,55.0644 519.154,56.4612 C518.343,57.8806 517.937,59.4576 517.937,61.1924 C517.937,62.9272 518.343,64.5042 519.154,65.9236 C519.988,67.3655 521.114,68.4919 522.533,69.303 C523.975,70.1141 525.575,70.5196 527.332,70.5196 C529.09,70.5196 530.678,70.1366 532.097,69.3706 C533.539,68.6271 534.666,67.5908 535.477,66.2615 C536.288,64.9548 536.693,63.4904 536.693,61.8683 C536.693,60.5616 536.423,59.345 535.882,58.2185 C535.341,57.0921 534.587,56.1346 533.618,55.346 L542.742,55.346 C543.261,55.346 543.677,55.1771 543.993,54.8391 C544.308,54.5237 544.466,54.1182 544.466,53.6225 Z M520.979,61.1924 C520.979,60.0659 521.249,59.0408 521.79,58.1171 C522.353,57.216 523.119,56.5063 524.088,55.9881 C525.057,55.4699 526.138,55.2108 527.332,55.2108 C528.526,55.2108 529.596,55.4699 530.543,55.9881 C531.511,56.5063 532.266,57.216 532.807,58.1171 C533.37,59.0408 533.652,60.0659 533.652,61.1924 C533.652,62.3189 533.37,63.3327 532.807,64.2339 C532.266,65.1576 531.511,65.8785 530.543,66.3967 C529.596,66.9374 528.526,67.2078 527.332,67.2078 C526.138,67.2078 525.057,66.9374 524.088,66.3967 C523.119,65.8785 522.353,65.1576 521.79,64.2339 C521.249,63.3327 520.979,62.3189 520.979,61.1924 Z" id="Shape" fill="#4A473F"></path>
            <path d="M544.77,94.7531 C544.77,96.6907 544.376,98.324 543.587,99.6533 C542.799,100.983 541.672,102.109 540.208,103.033 C539.78,103.303 539.374,103.438 538.991,103.438 C538.496,103.438 538.09,103.213 537.775,102.762 C537.617,102.515 537.538,102.222 537.538,101.884 C537.538,101.546 537.617,101.23 537.775,100.937 C537.955,100.645 538.191,100.419 538.484,100.262 C539.498,99.6533 540.264,98.8873 540.782,97.9636 C541.323,97.0624 541.593,95.9134 541.593,94.5166 C541.593,92.8043 541.255,91.4188 540.58,90.3599 C539.926,89.301 538.969,88.7716 537.707,88.7716 C536.536,88.7716 535.555,89.2447 534.767,90.1909 C533.978,91.1372 533.46,92.8269 533.212,95.26 C532.942,97.9636 532.12,100.059 530.745,101.546 C529.394,103.033 527.603,103.776 525.372,103.776 C523.75,103.776 522.353,103.337 521.182,102.458 C520.033,101.58 519.165,100.408 518.58,98.9436 C518.016,97.5017 517.735,95.9472 517.735,94.28 C517.735,92.0947 518.23,90.1008 519.222,88.2984 C520.213,86.5186 521.508,85.2908 523.108,84.6149 C523.378,84.5022 523.604,84.4459 523.784,84.4459 C524.122,84.4459 524.415,84.5698 524.663,84.8177 C524.933,85.0655 525.113,85.4034 525.203,85.8315 C525.226,85.8991 525.237,86.0117 525.237,86.1694 C525.237,86.5299 525.124,86.8678 524.899,87.1832 C524.696,87.5212 524.415,87.769 524.054,87.9267 C523.176,88.3322 522.432,89.132 521.824,90.3261 C521.216,91.5202 520.911,92.8381 520.911,94.28 C520.911,95.9697 521.294,97.4003 522.06,98.5719 C522.849,99.7434 523.919,100.329 525.271,100.329 C526.555,100.329 527.648,99.8335 528.549,98.8422 C529.473,97.8509 530.036,96.3414 530.239,94.3138 C530.509,91.5202 531.32,89.3235 532.672,87.7239 C534.046,86.1244 535.758,85.3246 537.808,85.3246 C539.25,85.3246 540.489,85.7301 541.526,86.5412 C542.585,87.3747 543.384,88.5012 543.925,89.9206 C544.488,91.3624 544.77,92.9733 544.77,94.7531 Z" id="Path" fill="#4A473F"></path>
            <path d="M521.452,116.702 C521.452,117.107 521.294,117.445 520.979,117.715 C520.664,118.008 520.258,118.155 519.762,118.155 C519.267,118.155 518.861,117.963 518.546,117.58 C518.23,117.22 518.073,116.747 518.073,116.161 L518.073,115.553 C518.073,114.449 518.354,113.435 518.918,112.511 C519.503,111.61 520.292,110.9 521.283,110.382 C522.274,109.864 523.39,109.605 524.629,109.605 L532.976,109.605 L532.976,108.05 C532.976,107.577 533.111,107.194 533.381,106.901 C533.652,106.608 533.99,106.462 534.395,106.462 C534.846,106.462 535.206,106.608 535.477,106.901 C535.747,107.194 535.882,107.577 535.882,108.05 L535.882,109.605 L540.749,109.605 C541.244,109.605 541.65,109.763 541.965,110.078 C542.281,110.393 542.438,110.799 542.438,111.295 C542.438,111.79 542.281,112.196 541.965,112.511 C541.65,112.827 541.244,112.984 540.749,112.984 L535.882,112.984 L535.882,115.857 C535.882,116.33 535.747,116.713 535.477,117.006 C535.206,117.299 534.846,117.445 534.395,117.445 C533.99,117.445 533.652,117.299 533.381,117.006 C533.111,116.713 532.976,116.33 532.976,115.857 L532.976,112.984 L524.629,112.984 C523.728,112.984 522.973,113.232 522.365,113.728 C521.756,114.223 521.452,114.832 521.452,115.553 L521.452,116.702 Z" id="Path" fill="#4A473F"></path>
            <path d="M536.592,137.633 C536.592,138.151 536.434,138.568 536.119,138.883 C535.803,139.198 535.387,139.356 534.868,139.356 L519.796,139.356 C519.301,139.356 518.884,139.198 518.546,138.883 C518.23,138.568 518.073,138.151 518.073,137.633 C518.073,137.137 518.23,136.72 518.546,136.382 C518.884,136.067 519.301,135.909 519.796,135.909 L520.168,135.909 C519.447,135.188 518.884,134.332 518.478,133.341 C518.095,132.349 517.904,131.291 517.904,130.164 C517.904,128.61 518.242,127.213 518.918,125.974 C519.593,124.734 520.573,123.766 521.858,123.067 C523.164,122.369 524.73,122.02 526.555,122.02 L534.868,122.02 C535.364,122.02 535.77,122.177 536.085,122.493 C536.423,122.831 536.592,123.248 536.592,123.743 C536.592,124.239 536.423,124.644 536.085,124.96 C535.77,125.298 535.364,125.467 534.868,125.467 L526.555,125.467 C524.73,125.467 523.345,125.951 522.398,126.92 C521.475,127.911 521.013,129.218 521.013,130.84 C521.013,131.786 521.204,132.642 521.587,133.408 C521.97,134.197 522.488,134.805 523.142,135.233 C523.795,135.684 524.527,135.909 525.338,135.909 L534.868,135.909 C535.387,135.909 535.803,136.067 536.119,136.382 C536.434,136.72 536.592,137.137 536.592,137.633 Z" id="Path" fill="#4A473F"></path>
            <path d="M544.466,161.378 C544.466,161.896 544.308,162.313 543.993,162.628 C543.677,162.943 543.261,163.101 542.742,163.101 L527.332,163.101 C525.575,163.101 523.975,162.684 522.533,161.851 C521.114,161.04 519.988,159.925 519.154,158.505 C518.343,157.108 517.937,155.543 517.937,153.808 C517.937,152.073 518.343,150.485 519.154,149.043 C519.988,147.623 521.114,146.508 522.533,145.697 C523.975,144.886 525.575,144.481 527.332,144.481 C529.09,144.481 530.678,144.852 532.097,145.596 C533.539,146.362 534.666,147.398 535.477,148.705 C536.288,150.034 536.693,151.51 536.693,153.132 C536.693,154.439 536.423,155.655 535.882,156.782 C535.341,157.908 534.587,158.866 533.618,159.654 L542.742,159.654 C543.261,159.654 543.677,159.812 543.993,160.127 C544.308,160.465 544.466,160.882 544.466,161.378 Z M520.979,153.808 C520.979,154.934 521.249,155.948 521.79,156.849 C522.353,157.773 523.119,158.494 524.088,159.012 C525.057,159.53 526.138,159.789 527.332,159.789 C528.526,159.789 529.596,159.53 530.543,159.012 C531.511,158.494 532.266,157.773 532.807,156.849 C533.37,155.948 533.652,154.934 533.652,153.808 C533.652,152.681 533.37,151.656 532.807,150.733 C532.266,149.831 531.511,149.11 530.543,148.57 C529.596,148.052 528.526,147.792 527.332,147.792 C526.138,147.792 525.057,148.052 524.088,148.57 C523.119,149.11 522.353,149.831 521.79,150.733 C521.249,151.656 520.979,152.681 520.979,153.808 Z" id="Shape" fill="#4A473F"></path>
            <path d="M534.835,169.526 C535.353,169.526 535.77,169.684 536.085,169.999 C536.4,170.337 536.558,170.754 536.558,171.25 C536.558,171.768 536.4,172.185 536.085,172.5 C535.77,172.816 535.353,172.973 534.835,172.973 L519.796,172.973 C519.301,172.973 518.884,172.816 518.546,172.5 C518.23,172.185 518.073,171.768 518.073,171.25 C518.073,170.754 518.23,170.337 518.546,169.999 C518.884,169.684 519.301,169.526 519.796,169.526 L534.835,169.526 Z M544.027,171.25 C544.027,171.858 543.801,172.376 543.351,172.804 C542.923,173.255 542.404,173.48 541.796,173.48 C541.188,173.48 540.658,173.255 540.208,172.804 C539.78,172.376 539.566,171.858 539.566,171.25 C539.566,170.642 539.78,170.112 540.208,169.661 C540.658,169.233 541.188,169.019 541.796,169.019 C542.404,169.019 542.923,169.233 543.351,169.661 C543.801,170.112 544.027,170.642 544.027,171.25 Z" id="Shape" fill="#4A473F"></path>
            <path d="M536.693,187.767 C536.693,189.547 536.288,191.135 535.477,192.532 C534.688,193.951 533.584,195.055 532.165,195.844 C530.745,196.655 529.123,197.06 527.298,197.06 C525.496,197.06 523.885,196.666 522.466,195.878 C521.047,195.089 519.931,193.985 519.12,192.566 C518.332,191.169 517.937,189.569 517.937,187.767 C517.937,185.965 518.332,184.354 519.12,182.934 C519.931,181.515 521.047,180.411 522.466,179.623 C523.885,178.834 525.496,178.44 527.298,178.44 C529.123,178.44 530.745,178.834 532.165,179.623 C533.584,180.411 534.688,181.515 535.477,182.934 C536.288,184.354 536.693,185.965 536.693,187.767 Z M533.652,187.767 C533.652,186.618 533.381,185.582 532.841,184.658 C532.3,183.757 531.545,183.047 530.576,182.529 C529.608,182.011 528.515,181.752 527.298,181.752 C526.082,181.752 524.989,182.011 524.02,182.529 C523.074,183.047 522.331,183.757 521.79,184.658 C521.249,185.582 520.979,186.618 520.979,187.767 C520.979,188.916 521.249,189.941 521.79,190.842 C522.331,191.766 523.074,192.476 524.02,192.971 C524.989,193.489 526.082,193.748 527.298,193.748 C528.515,193.748 529.608,193.489 530.576,192.971 C531.545,192.476 532.3,191.766 532.841,190.842 C533.381,189.941 533.652,188.916 533.652,187.767 Z" id="Shape" fill="#4A473F"></path>
        </g>
    </g>
</svg>